<svg  width="89" height="25" viewBox="0 0 705 200" fill="none" xmlns="http://www.w3.org/2000/svg">
<path d="M179.668 97.8807C179.668 48.2514 152.575 10.0165 83.7008 10.0165H10.0165V185.745H83.7008C152.575 185.745 179.668 147.51 179.668 97.8807ZM129.532 97.8807C129.532 132.571 110.035 145.485 82.9417 145.485H57.8734V50.2771H82.9417C110.035 50.2771 129.532 63.1908 129.532 97.8807Z" fill="black"/>
<path d="M191.129 185.745H330.395V145.738H238.986V115.606H319.253V77.6237H238.986V50.0239H328.116V10.0165H191.129V185.745Z" fill="black"/>
<path d="M492.513 71.0405C492.513 26.7284 464.153 10.0165 420.094 10.0165H343.877V185.745H391.734V132.065H420.094C464.153 132.065 492.513 115.352 492.513 71.0405ZM442.884 71.0405C442.884 88.259 434.781 95.3489 415.283 95.3489H391.734V46.7321H415.283C434.781 46.7321 442.884 53.822 442.884 71.0405Z" fill="black"/>
<path d="M497.736 51.0367H553.188V185.745H601.045V51.0367H656.498V10.0165H497.736V51.0367Z" fill="black"/>
<path d="M636.613 161.142C636.613 177.044 649.486 189.918 665.39 189.918C681.292 189.918 694.293 177.044 694.293 161.142C694.293 145.24 681.292 132.24 665.39 132.24C649.486 132.24 636.613 145.24 636.613 161.142ZM642.166 161.142C642.166 148.016 652.515 137.288 665.39 137.288C678.26 137.288 688.738 148.016 688.738 161.142C688.738 174.268 678.26 184.869 665.39 184.869C652.515 184.869 642.166 174.268 642.166 161.142ZM651.884 175.404H660.969V165.559H666.148L671.572 175.404H681.417L674.853 163.792C677.885 162.53 680.152 159.123 680.152 155.336C680.152 148.647 675.862 145.492 668.54 145.492H651.884V175.404ZM670.939 155.462C670.939 157.86 669.43 158.871 666.524 158.871H660.969V152.559H666.524C669.43 152.559 670.939 153.317 670.939 155.462Z" fill="black"/>
</svg>
